<?xml version="1.0" ?><!-- Uploaded to: SVG Repo, www.svgrepo.com, Generator: SVG Repo Mixer Tools -->
<svg width="800px" height="800px" viewBox="0 0 2050 2050" data-name="Layer 2" id="Layer_2" xmlns="http://www.w3.org/2000/svg"><defs><style>.cls-1{fill:#67baeb;}.cls-2{fill:#46a1f8;}.cls-3{fill:#605c85;}.cls-4{fill:#7c79ab;}.cls-5{fill:#4d4c78;}.cls-6{fill:#8784ba;}.cls-7{fill:#83d0fb;}.cls-8{fill:#8986bd;}</style></defs><title/><path class="cls-1" d="M602.1,536.1H1754.4a0,0,0,0,1,0,0V841.7a0,0,0,0,1,0,0H602.1A53.1,53.1,0,0,1,549,788.7V589.2a53.1,53.1,0,0,1,53.1-53.1Z" transform="translate(-190.2 668.2) rotate(-30)"/><path class="cls-2" d="M791.4,991a53,53,0,0,1-72.5-19.4L628.3,814.7l-29,16.7a53,53,0,0,0-19.4,72.5l99.7,172.7a53.1,53.1,0,0,0,72.5,19.5L1750,519.9l-35.6-61.8Z"/><rect class="cls-1" height="305.61" rx="11.4" ry="11.4" transform="translate(-552.8 305.5) rotate(-30)" width="76" x="255.8" y="1031.5"/><path class="cls-2" d="M397.3,1287.7,255.9,1042.9a11.3,11.3,0,0,0-15.6-4.2l-12.5,7.2L354,1264.5a11.4,11.4,0,0,1-4.2,15.6l-33.5,19.3,15.2,26.3a11.5,11.5,0,0,0,15.6,4.2l46-26.6A11.3,11.3,0,0,0,397.3,1287.7Z"/><rect class="cls-3" height="188.24" transform="translate(-474.8 383.5) rotate(-30)" width="350" x="303.2" y="983.7"/><path class="cls-4" d="M308.4,1067.2l42.6,73.9a40,40,0,0,0,54.5,14.6l165.6-95.6a39.9,39.9,0,0,0,14.6-54.5L543,931.7Z"/><rect class="cls-4" height="428.12" rx="22.7" ry="22.7" transform="translate(49.2 907.6) rotate(-30)" width="102.8" x="1666.8" y="147.8"/><path class="cls-3" d="M1858.3,501.9l-43.5-75.3-45.1,26a22.7,22.7,0,0,1-31.1-8.3L1590.8,188.2l-4.5,2.7a22.6,22.6,0,0,0-8.3,31l191.3,331.4a22.6,22.6,0,0,0,31,8.3l49.7-28.7A22.6,22.6,0,0,0,1858.3,501.9Z"/><polygon class="cls-5" points="1602 605.4 1449.2 340.8 1449.2 340.8 1414.5 360.8 1414.5 360.8 1567.3 625.4 1567.3 625.4 1602 605.4 1602 605.4"/><rect class="cls-4" height="1048.13" width="76.9" x="1027.1" y="842.7"/><polygon class="cls-4" points="738.9 1890.9 661.9 1890.9 951.3 842.7 1028.2 842.7 738.9 1890.9"/><polygon class="cls-4" points="1392.2 1890.9 1469.1 1890.9 1179.8 842.7 1102.9 842.7 1392.2 1890.9"/><path class="cls-3" d="M1102.9,842.7h-74.7l-1.1,4.1v195.7a207.1,207.1,0,0,0,76.9,0V846.8Z"/><path class="cls-3" d="M1027.1,842.7H951.3L913.9,978.1a204.7,204.7,0,0,0,63.7,48l49.5-179.3Z"/><polygon class="cls-4" points="1027.1 846.8 1028.2 842.7 1027.1 842.7 1027.1 846.8"/><path class="cls-3" d="M1104,842.7v4.1l49.5,179.3a204.7,204.7,0,0,0,63.7-48l-37.4-135.4Z"/><polygon class="cls-4" points="1102.9 842.7 1104 846.8 1104 842.7 1102.9 842.7"/><circle class="cls-4" cx="1065.5" cy="842.7" r="155.4"/><path class="cls-6" d="M1065.5,687.4a155.1,155.1,0,0,0-114.6,50.4,155.4,155.4,0,0,1,193.7,238.7,155.1,155.1,0,0,0,76.3-133.8C1220.9,756.9,1151.3,687.4,1065.5,687.4Z"/><circle class="cls-5" cx="1065.5" cy="842.7" r="75.8"/><rect class="cls-7" height="79.43" rx="39.7" ry="39.7" transform="matrix(0.87, -0.5, 0.5, 0.87, -80.86, 697.13)" width="297" x="1111.9" y="459.7"/><rect class="cls-7" height="58.42" rx="29.2" ry="29.2" transform="matrix(0.87, -0.5, 0.5, 0.87, -228.49, 541.81)" width="180.9" x="806.4" y="668.1"/><rect class="cls-8" height="58.42" rx="29.2" ry="29.2" transform="translate(-451.3 359.9) rotate(-30)" width="180.9" x="355.6" y="992.8"/><rect class="cls-7" height="155.49" rx="12.1" ry="12.1" transform="translate(-546.6 282.1) rotate(-30)" width="24.1" x="241" y="1083.3"/><rect class="cls-8" height="186.8" rx="27.4" ry="27.4" transform="translate(85.5 886.3) rotate(-30)" width="54.8" x="1669.2" y="190.2"/></svg>